# xmcd
#
# Track frame offsets:
# 150
# 18797
# 32635
# 49210
# 67700
# 84032
# 99822
# 119900
# 134515
# 151782
# 167945
# 185605
#
# Disc length: 2672 seconds
#
#
# Revision: 0
# Processed by: cddbd v1.5.1PL2 Copyright (c) Steve Scherf et al.
# Submitted via: FreeRIP 2.51 
#
DISCID=8f0a6e0c
DTITLE=BBs Dream - B. B. S Dream
DYEAR=1900
DGENRE=Alternative
TTITLE0=Look at me
TTITLE1=Louis
TTITLE2=The wisest man on earth
TTITLE3=Love is blue
TTITLE4=The inquisitor
TTITLE5=I have a dream
TTITLE6=Give it away for free
TTITLE7=No love song
TTITLE8=Shy guy
TTITLE9=No party
TTITLE10=Pride calls my name
TTITLE11=We will bach you
EXTD=
EXTT0=
EXTT1=
EXTT2=
EXTT3=
EXTT4=
EXTT5=
EXTT6=
EXTT7=
EXTT8=
EXTT9=
EXTT10=
EXTT11=
PLAYORDER=
